<svg width="479" height="479" viewBox="0 0 479 479" fill="none" xmlns="http://www.w3.org/2000/svg">
<g id="Illustrations">
<g id="illustration">
<path id="Oval" fill-rule="evenodd" clip-rule="evenodd" d="M320.261 395.465C323.448 395.409 325.986 392.781 325.93 389.594C325.874 386.408 323.246 383.87 320.06 383.925C316.873 383.981 314.335 386.609 314.391 389.796C314.446 392.982 317.075 395.52 320.261 395.465Z" fill="#22A45D"/>
<path id="Oval Copy" fill-rule="evenodd" clip-rule="evenodd" d="M118.299 283.976C121.486 283.921 124.024 281.293 123.968 278.106C123.913 274.92 121.285 272.382 118.098 272.437C114.912 272.493 112.373 275.121 112.429 278.307C112.485 281.494 115.113 284.032 118.299 283.976Z" fill="#22A45D"/>
<path id="Oval Copy 2" fill-rule="evenodd" clip-rule="evenodd" d="M98.8553 161.962C102.042 161.906 104.58 159.278 104.524 156.092C104.469 152.905 101.84 150.367 98.6539 150.423C95.4674 150.478 92.9294 153.107 92.985 156.293C93.0406 159.48 95.6689 162.018 98.8553 161.962Z" fill="#22A45D"/>
<path id="Oval Copy 3" fill-rule="evenodd" clip-rule="evenodd" d="M345.782 90.7037C348.969 90.648 351.507 88.0198 351.451 84.8333C351.395 81.6468 348.767 79.1087 345.581 79.1644C342.394 79.22 339.856 81.8482 339.912 85.0347C339.967 88.2212 342.596 90.7593 345.782 90.7037Z" fill="#22A45D"/>
<path id="Polygon Copy 3" fill-rule="evenodd" clip-rule="evenodd" d="M107.838 114.48L115.469 121.849L108.1 129.481L100.468 122.111L107.838 114.48Z" fill="#FFD841"/>
<path id="Polygon" fill-rule="evenodd" clip-rule="evenodd" d="M386.968 102.682L394.6 110.051L387.23 117.683L379.598 110.313L386.968 102.682Z" fill="#FFD841"/>
<path id="Polygon Copy" fill-rule="evenodd" clip-rule="evenodd" d="M336.44 315.952L344.071 323.321L336.701 330.953L329.07 323.583L336.44 315.952Z" fill="#FFD841"/>
<path id="Polygon Copy 2" fill-rule="evenodd" clip-rule="evenodd" d="M137.742 306.723L145.373 314.092L138.004 321.724L130.372 314.354L137.742 306.723Z" fill="#FFD841"/>
</g>
<g id="illustration_2">
<path id="Mask" fill-rule="evenodd" clip-rule="evenodd" d="M167.136 422.643C259.179 447.306 353.789 392.683 378.452 300.639C403.115 208.596 348.492 113.986 256.448 89.3234C164.405 64.6604 69.7955 119.283 45.1325 211.327C20.4695 303.37 75.0923 397.98 167.136 422.643Z" fill="#DDF1E6"/>
<mask id="mask0_2_563" style="mask-type:alpha" maskUnits="userSpaceOnUse" x="39" y="83" width="346" height="346">
<path id="Mask_2" fill-rule="evenodd" clip-rule="evenodd" d="M167.136 422.643C259.179 447.306 353.789 392.683 378.452 300.639C403.115 208.596 348.492 113.986 256.448 89.3234C164.405 64.6604 69.7955 119.283 45.1325 211.327C20.4695 303.37 75.0923 397.98 167.136 422.643Z" fill="white"/>
</mask>
<g mask="url(#mask0_2_563)">
<g id="illustration copy">
<path id="Path 2" fill-rule="evenodd" clip-rule="evenodd" d="M320.498 65.9593C447.758 187.531 318.177 209.849 388.71 316.066C428.459 375.923 327.894 443.558 237.684 417.563C205.55 408.303 188.495 338.998 160.373 320.379C127.351 298.517 86.1345 321.458 78.8251 273.876C47.8164 72.0198 190.37 176.058 219.979 98.1366C249.588 20.2149 302.428 49.687 320.498 65.9593Z" fill="#FBFBFB"/>
<path id="Oval_2" fill-rule="evenodd" clip-rule="evenodd" d="M320.334 395.193C323.52 395.137 326.058 392.509 326.003 389.323C325.947 386.136 323.319 383.598 320.132 383.654C316.946 383.709 314.408 386.338 314.463 389.524C314.519 392.711 317.147 395.249 320.334 395.193Z" fill="#22A45D"/>
<path id="Oval Copy_2" fill-rule="evenodd" clip-rule="evenodd" d="M116.084 283.383C119.271 283.327 121.809 280.699 121.753 277.513C121.697 274.326 119.069 271.788 115.883 271.844C112.696 271.899 110.158 274.528 110.214 277.714C110.269 280.901 112.898 283.439 116.084 283.383Z" fill="#22A45D"/>
<path id="Oval Copy 2_2" fill-rule="evenodd" clip-rule="evenodd" d="M96.64 161.369C99.8265 161.313 102.365 158.685 102.309 155.498C102.253 152.312 99.6251 149.774 96.4386 149.829C93.2521 149.885 90.714 152.513 90.7697 155.7C90.8253 158.886 93.4535 161.424 96.64 161.369Z" fill="#22A45D"/>
<path id="Oval Copy 3_2" fill-rule="evenodd" clip-rule="evenodd" d="M343.567 90.1102C346.753 90.0545 349.291 87.4263 349.236 84.2398C349.18 81.0533 346.552 78.5152 343.365 78.5709C340.179 78.6265 337.641 81.2547 337.696 84.4412C337.752 87.6277 340.38 90.1658 343.567 90.1102Z" fill="#22A45D"/>
<path id="Polygon_2" fill-rule="evenodd" clip-rule="evenodd" d="M384.753 102.088L392.384 109.458L385.015 117.089L377.383 109.72L384.753 102.088Z" fill="#FFD841"/>
<path id="Polygon Copy_2" fill-rule="evenodd" clip-rule="evenodd" d="M334.224 315.358L341.856 322.728L334.486 330.359L326.855 322.989L334.224 315.358Z" fill="#FFD841"/>
<path id="Polygon Copy 2_2" fill-rule="evenodd" clip-rule="evenodd" d="M135.527 306.129L143.158 313.499L135.789 321.13L128.157 313.761L135.527 306.129Z" fill="#FFD841"/>
<path id="Polygon Copy 3_2" fill-rule="evenodd" clip-rule="evenodd" d="M105.623 113.886L113.254 121.256L105.885 128.887L98.2532 121.518L105.623 113.886Z" fill="#FFD841"/>
</g>
</g>
</g>
</g>
</svg>
