<svg width="363" height="394" viewBox="0 0 363 394" fill="none" xmlns="http://www.w3.org/2000/svg">
<path fill-rule="evenodd" clip-rule="evenodd" d="M47.6219 66.217C44.5429 67.0999 42.7626 70.3117 43.6455 73.3907C44.5283 76.4697 47.7401 78.25 50.8191 77.3671C53.8981 76.4842 55.6784 73.2725 54.7955 70.1934C53.9127 67.1144 50.7009 65.3341 47.6219 66.217Z" fill="#22A45D"/>
<path fill-rule="evenodd" clip-rule="evenodd" d="M272.69 121.915C269.611 122.798 267.83 126.01 268.713 129.089C269.596 132.168 272.808 133.948 275.887 133.065C278.966 132.182 280.746 128.971 279.863 125.892C278.981 122.813 275.769 121.032 272.69 121.915Z" fill="#22A45D"/>
<path fill-rule="evenodd" clip-rule="evenodd" d="M323.306 235.31C320.227 236.193 318.446 239.405 319.329 242.484C320.212 245.563 323.424 247.343 326.503 246.46C329.582 245.577 331.362 242.366 330.479 239.287C329.596 236.208 326.385 234.427 323.306 235.31Z" fill="#22A45D"/>
<path fill-rule="evenodd" clip-rule="evenodd" d="M102.122 368.721C99.0435 369.604 97.2632 372.816 98.1461 375.895C99.029 378.974 102.241 380.754 105.32 379.872C108.399 378.989 110.179 375.777 109.296 372.698C108.413 369.619 105.202 367.839 102.122 368.721Z" fill="#22A45D"/>
<path fill-rule="evenodd" clip-rule="evenodd" d="M326.937 283.743L317.611 278.574L322.78 269.248L332.106 274.418L326.937 283.743Z" fill="#FFD841"/>
<path fill-rule="evenodd" clip-rule="evenodd" d="M59.0227 367.806L49.6969 362.637L54.8663 353.311L64.1921 358.481L59.0227 367.806Z" fill="#FFD841"/>
<path fill-rule="evenodd" clip-rule="evenodd" d="M52.599 147.618L43.2732 142.448L48.4426 133.123L57.7684 138.292L52.599 147.618Z" fill="#FFD841"/>
<path fill-rule="evenodd" clip-rule="evenodd" d="M247.898 104.89L238.572 99.721L243.741 90.3953L253.067 95.5646L247.898 104.89Z" fill="#FFD841"/>
<path fill-rule="evenodd" clip-rule="evenodd" d="M189.208 -2.56505e-05C93.435 -3.40232e-05 15.796 77.639 15.796 173.412C15.796 269.184 93.435 346.823 189.208 346.823C284.98 346.823 362.619 269.184 362.619 173.412C362.619 77.639 284.98 -1.72778e-05 189.208 -2.56505e-05Z" fill="#DDF1E6"/>
<mask id="mask0_2_670" style="mask-type:alpha" maskUnits="userSpaceOnUse" x="15" y="0" width="348" height="347">
<path fill-rule="evenodd" clip-rule="evenodd" d="M189.208 -2.56505e-05C93.435 -3.40232e-05 15.796 77.639 15.796 173.412C15.796 269.184 93.435 346.823 189.208 346.823C284.98 346.823 362.619 269.184 362.619 173.412C362.619 77.639 284.98 -1.72778e-05 189.208 -2.56505e-05Z" fill="white"/>
</mask>
<g mask="url(#mask0_2_670)">
<path fill-rule="evenodd" clip-rule="evenodd" d="M133.105 386.166C-22.0651 301.247 97.9289 245.872 1.82416 161.104C-52.3347 113.334 27.7009 21.5126 122.04 23.2829C155.644 23.9135 190.231 86.7595 222.375 97.5193C260.12 110.154 294.166 77.1607 313.639 121.452C396.251 309.351 230.795 245.431 222.32 328.78C213.845 412.13 154.88 397.263 133.105 386.166Z" fill="#FBFBFB"/>
<path fill-rule="evenodd" clip-rule="evenodd" d="M47.6219 66.4996C44.5429 67.3824 42.7626 70.5942 43.6455 73.6732C44.5283 76.7522 47.7401 78.5325 50.8191 77.6496C53.8981 76.7668 55.6784 73.555 54.7955 70.476C53.9127 67.397 50.7009 65.6167 47.6219 66.4996Z" fill="#22A45D"/>
<path fill-rule="evenodd" clip-rule="evenodd" d="M274.995 121.915C271.916 122.798 270.135 126.01 271.018 129.089C271.901 132.168 275.113 133.948 278.192 133.065C281.271 132.182 283.051 128.971 282.168 125.892C281.286 122.812 278.074 121.032 274.995 121.915Z" fill="#22A45D"/>
<path fill-rule="evenodd" clip-rule="evenodd" d="M325.611 235.31C322.532 236.193 320.751 239.405 321.634 242.484C322.517 245.563 325.729 247.343 328.808 246.46C331.887 245.577 333.667 242.366 332.784 239.287C331.901 236.208 328.69 234.427 325.611 235.31Z" fill="#22A45D"/>
<path fill-rule="evenodd" clip-rule="evenodd" d="M54.9039 147.618L45.5782 142.448L50.7475 133.123L60.0733 138.292L54.9039 147.618Z" fill="#FFD841"/>
<path fill-rule="evenodd" clip-rule="evenodd" d="M250.203 104.89L240.877 99.7209L246.046 90.3952L255.372 95.5645L250.203 104.89Z" fill="#FFD841"/>
<path fill-rule="evenodd" clip-rule="evenodd" d="M329.242 283.743L319.916 278.574L325.085 269.248L334.411 274.417L329.242 283.743Z" fill="#FFD841"/>
</g>
</svg>
